# xmcd
#
# Track frame offsets:
#	150
#	24480
#	70315
#	87603
#	126059
#	157490
#	198196
#	225028
#	256811
#	304881
#
# Disc length: 4405
#
# Revision: 1
# Processed by: cddbd v1.5.1PL0 Copyright (c) Steve Scherf et al.
# Submitted via: CDex 1.51
# Normalized: r0:TRMNUM
#
DISCID=8011330a
DTITLE=Various Artist - Best Of The 2003 Tampa Bay Blues Festival CD1
DYEAR=2004
DGENRE=Blues
TTITLE0=I'm In Love With You Baby (Michael Burke)
TTITLE1=The Sky Is Crying (Michael Burke)
TTITLE2=Mean Old Lady (Michael Burke)
TTITLE3=Don't Let It Be A Dream (Michael Burke)
TTITLE4=Sittin' Here Waiting (Kim Wilson)
TTITLE5=Trust My Baby (Kim Wilson)
TTITLE6=They Raided The Joint (Deborah Coleman)
TTITLE7=My Heart Bleeds Blue (Deborah Coleman)
TTITLE8=Goodbye Misery (Deborah Coleman)
TTITLE9=Murder In The First Degree (Rod Piazza)
EXTD=YEAR: 2004
EXTT0=
EXTT1=
EXTT2=
EXTT3=
EXTT4=
EXTT5=
EXTT6=
EXTT7=
EXTT8=
EXTT9=
PLAYORDER=
